# xmcd
#
# Track frame offsets: 
#        150
#        34193
#        58643
#        81916
#        107435
#        140996
#        157321
#        181303
#
# Disc length: 2792 seconds
#
# Revision: 1
# Processed by: cddbd v1.5.2PL0 Copyright (c) Steve Scherf et al.
# Submitted via: ExactAudioCopyFreeDBPlugin 1.0
#
DISCID=6f0ae608
DTITLE=Sebastian Gille - Anthem
DYEAR=2011
DGENRE=Jazz
TTITLE0=Blossom
TTITLE1=Gray
TTITLE2=Anthem
TTITLE3=Embrace
TTITLE4=Charisma
TTITLE5=Barbara-Song
TTITLE6=Epilogue
TTITLE7=You won't forget me
EXTD=YEAR: 2011
EXTT0=
EXTT1=
EXTT2=
EXTT3=
EXTT4=
EXTT5=
EXTT6=
EXTT7=
PLAYORDER=
